<svg width="86" height="117" viewBox="0 0 86 117" fill="none" xmlns="http://www.w3.org/2000/svg">
<path d="M79.3846 0H6.61538C4.86088 0 3.17823 0.699186 1.9376 1.94375C0.696976 3.18831 0 4.87629 0 6.63636V66.3636C0 68.1237 0.696976 69.8117 1.9376 71.0563C3.17823 72.3008 4.86088 73 6.61538 73H12.1516C12.7776 73.0002 13.3909 72.8222 13.92 72.4867C14.4492 72.1511 14.8726 71.6718 15.141 71.1045C16.7494 67.6979 19.2889 64.8193 22.464 62.8035C25.6391 60.7878 29.3194 59.7177 33.0769 59.7177C36.8344 59.7177 40.5148 60.7878 43.6899 62.8035C46.865 64.8193 49.4044 67.6979 51.0129 71.1045C51.2813 71.6718 51.7047 72.1511 52.2338 72.4867C52.763 72.8222 53.3762 73.0002 54.0022 73H79.3846C81.1391 73 82.8218 72.3008 84.0624 71.0563C85.303 69.8117 86 68.1237 86 66.3636V6.63636C86 4.87629 85.303 3.18831 84.0624 1.94375C82.8218 0.699186 81.1391 0 79.3846 0ZM33.0769 53.0909C30.4601 53.0909 27.9021 52.3125 25.7263 50.854C23.5505 49.3956 21.8547 47.3227 20.8533 44.8974C19.8519 42.4722 19.5899 39.8035 20.1004 37.2288C20.6109 34.6541 21.871 32.2892 23.7214 30.4329C25.5717 28.5767 27.9292 27.3126 30.4957 26.8005C33.0622 26.2884 35.7225 26.5512 38.1401 27.5558C40.5577 28.5604 42.6241 30.2616 44.0779 32.4443C45.5317 34.6269 46.3077 37.1931 46.3077 39.8182C46.3077 43.3383 44.9137 46.7143 42.4325 49.2034C39.9512 51.6925 36.5859 53.0909 33.0769 53.0909ZM79.3846 66.3636H55.9951C54.5531 63.8695 52.7153 61.6279 50.5539 59.7273H69.4615C70.3388 59.7273 71.1801 59.3777 71.8004 58.7554C72.4207 58.1331 72.7692 57.2891 72.7692 56.4091V16.5909C72.7692 15.7109 72.4207 14.8669 71.8004 14.2446C71.1801 13.6223 70.3388 13.2727 69.4615 13.2727H16.5385C15.6612 13.2727 14.8199 13.6223 14.1996 14.2446C13.5793 14.8669 13.2308 15.7109 13.2308 16.5909V56.4091C13.2304 57.145 13.4739 57.8602 13.923 58.4421C14.3721 59.024 15.0012 59.4396 15.7115 59.6236C13.5004 61.5454 11.6238 63.8232 10.1587 66.3636H6.61538V6.63636H79.3846V66.3636Z" fill="#212A3E"/>
<path d="M12.024 99H2.16L2.16 81.864H12.024L12.024 84.84H5.784L5.784 88.608H11.592V91.584H5.784V96H12.024V99ZM20.9177 81.864C22.4377 81.864 23.7097 82.008 24.7337 82.296C25.7737 82.568 26.5497 83.024 27.0617 83.664C27.5897 84.288 27.8537 85.136 27.8537 86.208C27.8537 86.848 27.7497 87.432 27.5417 87.96C27.3337 88.488 27.0297 88.92 26.6297 89.256C26.2457 89.592 25.7737 89.808 25.2137 89.904V90.024C25.7897 90.136 26.3097 90.336 26.7737 90.624C27.2377 90.912 27.6057 91.328 27.8777 91.872C28.1497 92.416 28.2857 93.136 28.2857 94.032C28.2857 95.072 28.0297 95.968 27.5177 96.72C27.0217 97.456 26.3017 98.024 25.3577 98.424C24.4137 98.808 23.2937 99 21.9977 99H15.5897L15.5897 81.864H20.9177ZM21.3257 88.656C22.3817 88.656 23.1097 88.488 23.5097 88.152C23.9257 87.816 24.1337 87.328 24.1337 86.688C24.1337 86.032 23.8937 85.56 23.4137 85.272C22.9337 84.984 22.1737 84.84 21.1337 84.84H19.2137V88.656H21.3257ZM19.2137 91.536V96H21.5897C22.6777 96 23.4377 95.792 23.8697 95.376C24.3017 94.944 24.5177 94.376 24.5177 93.672C24.5177 93.24 24.4217 92.864 24.2297 92.544C24.0537 92.224 23.7417 91.976 23.2937 91.8C22.8457 91.624 22.2377 91.536 21.4697 91.536H19.2137ZM43.3307 92.424C43.3307 93.512 43.1787 94.48 42.8747 95.328C42.5867 96.176 42.1627 96.896 41.6027 97.488C41.0587 98.064 40.3947 98.504 39.6107 98.808C38.8267 99.096 37.9387 99.24 36.9467 99.24C36.0347 99.24 35.1867 99.096 34.4027 98.808C33.6347 98.504 32.9707 98.064 32.4107 97.488C31.8507 96.896 31.4107 96.176 31.0907 95.328C30.7867 94.48 30.6347 93.512 30.6347 92.424C30.6347 90.968 30.8907 89.744 31.4027 88.752C31.9147 87.744 32.6507 86.976 33.6107 86.448C34.5707 85.92 35.7067 85.656 37.0187 85.656C38.2507 85.656 39.3387 85.92 40.2827 86.448C41.2267 86.976 41.9707 87.744 42.5147 88.752C43.0587 89.744 43.3307 90.968 43.3307 92.424ZM34.2827 92.424C34.2827 93.288 34.3707 94.016 34.5467 94.608C34.7387 95.184 35.0347 95.624 35.4347 95.928C35.8347 96.216 36.3547 96.36 36.9947 96.36C37.6347 96.36 38.1467 96.216 38.5307 95.928C38.9307 95.624 39.2187 95.184 39.3947 94.608C39.5867 94.016 39.6827 93.288 39.6827 92.424C39.6827 91.56 39.5867 90.84 39.3947 90.264C39.2187 89.688 38.9307 89.256 38.5307 88.968C38.1307 88.68 37.6107 88.536 36.9707 88.536C36.0267 88.536 35.3387 88.864 34.9067 89.52C34.4907 90.16 34.2827 91.128 34.2827 92.424ZM51.6621 85.632C53.4221 85.632 54.7661 86.016 55.6941 86.784C56.6381 87.536 57.1101 88.696 57.1101 90.264V99H54.6141L53.9181 97.224H53.8221C53.4541 97.688 53.0701 98.072 52.6701 98.376C52.2861 98.68 51.8381 98.896 51.3261 99.024C50.8301 99.168 50.2141 99.24 49.4781 99.24C48.7101 99.24 48.0141 99.096 47.3901 98.808C46.7821 98.504 46.3021 98.048 45.9501 97.44C45.5981 96.816 45.4221 96.032 45.4221 95.088C45.4221 93.696 45.9101 92.672 46.8861 92.016C47.8621 91.344 49.3261 90.976 51.2781 90.912L53.5581 90.84V90.264C53.5581 89.576 53.3741 89.072 53.0061 88.752C52.6541 88.432 52.1581 88.272 51.5181 88.272C50.8781 88.272 50.2541 88.368 49.6461 88.56C49.0381 88.736 48.4301 88.96 47.8221 89.232L46.6461 86.808C47.3501 86.44 48.1261 86.152 48.9741 85.944C49.8381 85.736 50.7341 85.632 51.6621 85.632ZM52.1661 92.976C51.0141 93.008 50.2141 93.216 49.7661 93.6C49.3181 93.984 49.0941 94.488 49.0941 95.112C49.0941 95.656 49.2541 96.048 49.5741 96.288C49.8941 96.512 50.3101 96.624 50.8221 96.624C51.5901 96.624 52.2381 96.4 52.7661 95.952C53.2941 95.488 53.5581 94.84 53.5581 94.008V92.928L52.1661 92.976ZM68.0904 85.656C68.2664 85.656 68.4744 85.664 68.7144 85.68C68.9544 85.696 69.1464 85.72 69.2904 85.752L69.0264 89.112C68.9144 89.08 68.7464 89.056 68.5224 89.04C68.3144 89.008 68.1304 88.992 67.9704 88.992C67.5064 88.992 67.0584 89.056 66.6264 89.184C66.1944 89.296 65.8024 89.48 65.4504 89.736C65.1144 89.992 64.8424 90.336 64.6344 90.768C64.4424 91.184 64.3464 91.704 64.3464 92.328V99H60.7704L60.7704 85.896H63.4824L64.0104 88.104H64.1784C64.4344 87.656 64.7544 87.248 65.1384 86.88C65.5224 86.512 65.9624 86.216 66.4584 85.992C66.9704 85.768 67.5144 85.656 68.0904 85.656ZM75.3521 99.24C73.8961 99.24 72.7041 98.672 71.7761 97.536C70.8641 96.384 70.4081 94.696 70.4081 92.472C70.4081 90.232 70.8721 88.536 71.8001 87.384C72.7281 86.232 73.9441 85.656 75.4481 85.656C76.0721 85.656 76.6241 85.744 77.1041 85.92C77.5841 86.08 77.9921 86.304 78.3281 86.592C78.6801 86.88 78.9761 87.208 79.2161 87.576H79.3361C79.2881 87.32 79.2321 86.952 79.1681 86.472C79.1041 85.976 79.0721 85.472 79.0721 84.96V80.76H82.6481V99H79.9121L79.2161 97.296H79.0721C78.8481 97.648 78.5601 97.976 78.2081 98.28C77.8721 98.568 77.4721 98.8 77.0081 98.976C76.5441 99.152 75.9921 99.24 75.3521 99.24ZM76.6001 96.384C77.5921 96.384 78.2881 96.096 78.6881 95.52C79.0881 94.928 79.2961 94.048 79.3121 92.88V92.496C79.3121 91.216 79.1121 90.24 78.7121 89.568C78.3281 88.896 77.6081 88.56 76.5521 88.56C75.7681 88.56 75.1521 88.904 74.7041 89.592C74.2561 90.264 74.0321 91.24 74.0321 92.52C74.0321 93.8 74.2561 94.768 74.7041 95.424C75.1521 96.064 75.7841 96.384 76.6001 96.384Z" fill="#212A3E"/>
</svg>
